<svg width="25" height="25" viewBox="0 0 25 25" fill="none" xmlns="http://www.w3.org/2000/svg">
<path fill-rule="evenodd" clip-rule="evenodd" d="M19.7951 7.51698C19.9439 7.67037 19.9903 7.89601 19.9143 8.09567L15.3143 20.1706C15.2479 20.3449 15.0977 20.4736 14.9154 20.5126C14.733 20.5516 14.5433 20.4956 14.4114 20.3637L9.32825 15.2805L4.27647 13.5966C4.05298 13.5221 3.90175 13.3136 3.9004 13.078C3.89905 12.8424 4.04787 12.6322 4.27048 12.5551L19.2204 7.38013C19.4223 7.31024 19.6464 7.3636 19.7951 7.51698ZM10.476 14.8726L14.5887 18.9853L18.2444 9.38898L10.476 14.8726ZM15.9109 9.68976L6.16017 13.065L9.53541 14.1901L15.9109 9.68976Z" fill="#ADA08C"/>
<path fill-rule="evenodd" clip-rule="evenodd" d="M0.450195 12.4999C0.450195 5.84471 5.84495 0.449951 12.5001 0.449951C19.1553 0.449951 24.55 5.84471 24.55 12.4999C24.55 19.155 19.1553 24.5498 12.5001 24.5498C5.84495 24.5498 0.450195 19.155 0.450195 12.4999ZM12.5001 1.54995C6.45247 1.54995 1.5502 6.45222 1.5502 12.4999C1.5502 18.5475 6.45247 23.4498 12.5001 23.4498C18.5478 23.4498 23.45 18.5475 23.45 12.4999C23.45 6.45222 18.5478 1.54995 12.5001 1.54995Z" fill="#ADA08C"/>
</svg>
