<svg width="25" height="25" viewBox="0 0 25 25" fill="none" xmlns="http://www.w3.org/2000/svg">
<path fill-rule="evenodd" clip-rule="evenodd" d="M19.7951 7.51708C19.9439 7.67046 19.9903 7.8961 19.9143 8.09576L15.3143 20.1707C15.2479 20.3449 15.0977 20.4737 14.9154 20.5127C14.733 20.5517 14.5433 20.4957 14.4114 20.3638L9.32825 15.2806L4.27647 13.5967C4.05298 13.5222 3.90175 13.3137 3.9004 13.0781C3.89905 12.8425 4.04787 12.6322 4.27048 12.5552L19.2204 7.38022C19.4223 7.31033 19.6464 7.36369 19.7951 7.51708ZM10.476 14.8727L14.5887 18.9854L18.2444 9.38907L10.476 14.8727ZM15.9109 9.68985L6.16017 13.0651L9.53541 14.1902L15.9109 9.68985Z" fill="white"/>
<path fill-rule="evenodd" clip-rule="evenodd" d="M0.450195 12.4999C0.450195 5.84477 5.84495 0.450012 12.5001 0.450012C19.1553 0.450012 24.55 5.84477 24.55 12.4999C24.55 19.1551 19.1553 24.5498 12.5001 24.5498C5.84495 24.5498 0.450195 19.1551 0.450195 12.4999ZM12.5001 1.55001C6.45247 1.55001 1.5502 6.45228 1.5502 12.4999C1.5502 18.5476 6.45247 23.4498 12.5001 23.4498C18.5478 23.4498 23.45 18.5476 23.45 12.4999C23.45 6.45228 18.5478 1.55001 12.5001 1.55001Z" fill="white"/>
</svg>
