<svg width="25" height="25" viewBox="0 0 25 25" fill="none" xmlns="http://www.w3.org/2000/svg">
<g clip-path="url(#clip0_0_147)">
<path d="M12.5 0C5.60301 0 0 5.60301 0 12.5C0 14.7169 0.607982 16.7858 1.62194 18.5918L0.0201681 24.31C-0.0054217 24.4015 -0.00657794 24.4982 0.0168147 24.5902C0.0402074 24.6823 0.0873317 24.7667 0.153489 24.8349C0.219646 24.9031 0.302525 24.9527 0.393862 24.9789C0.485199 25.0051 0.581802 25.0069 0.67404 24.9841L6.63638 23.5065C8.38839 24.4418 10.3764 25 12.5 25C19.397 25 25 19.397 25 12.5C25 5.60301 19.397 0 12.5 0ZM12.5 1.08696C18.8095 1.08696 23.913 6.19047 23.913 12.5C23.913 18.8095 18.8095 23.913 12.5 23.913C10.4772 23.913 8.58267 23.3857 6.93572 22.4641C6.81526 22.3968 6.67371 22.3778 6.53978 22.411L1.31836 23.705L2.71845 18.7097C2.73849 18.6391 2.74402 18.5651 2.73471 18.4924C2.72541 18.4196 2.70146 18.3494 2.66432 18.2861C1.66342 16.5889 1.08696 14.6142 1.08696 12.5C1.08696 6.19047 6.19047 1.08696 12.5 1.08696ZM7.95792 5.97826C7.60953 5.97826 7.11198 6.10787 6.70325 6.54828C6.45775 6.8128 5.43478 7.80952 5.43478 9.56182C5.43478 11.3887 6.70184 12.9651 6.85504 13.1677H6.85611V13.1687C6.84157 13.1496 7.05056 13.4523 7.32953 13.8152C7.60849 14.1781 7.99859 14.6547 8.48866 15.1707C9.46881 16.2027 10.8469 17.3953 12.5573 18.1248C13.345 18.4602 13.9664 18.6627 14.4372 18.8105C15.3097 19.0845 16.1044 19.0428 16.7013 18.9549C17.1482 18.8891 17.6396 18.6745 18.1258 18.3668C18.6121 18.0591 19.0886 17.6765 19.2988 17.0951C19.4493 16.6784 19.5259 16.2933 19.5535 15.9763C19.5674 15.8179 19.5691 15.678 19.5588 15.5486C19.5485 15.4191 19.5596 15.3199 19.4389 15.1219C19.1859 14.7064 18.8993 14.6956 18.6003 14.5476C18.4342 14.4654 17.9612 14.2344 17.4868 14.0084C17.013 13.7826 16.6027 13.5826 16.35 13.4925C16.1903 13.435 15.9954 13.3524 15.7142 13.3842C15.4329 13.4161 15.1551 13.619 14.9934 13.8587C14.8401 14.0859 14.223 14.8143 14.0349 15.0284C14.0324 15.0269 14.0487 15.0344 13.9744 14.9977C13.7417 14.8825 13.4572 14.7846 13.036 14.5625C12.6149 14.3403 12.0882 14.0123 11.5118 13.5042V13.5031C10.6538 12.7478 10.0529 11.7995 9.86328 11.481C9.87605 11.4658 9.86176 11.4842 9.88876 11.4576L9.88982 11.4566C10.0836 11.2657 10.2553 11.0378 10.4004 10.8706C10.6061 10.6336 10.6969 10.4247 10.7953 10.2295C10.9913 9.84046 10.8821 9.41236 10.7687 9.18712V9.18606C10.7766 9.20164 10.7074 9.049 10.6329 8.87292C10.5581 8.69634 10.4629 8.46741 10.3611 8.22329C10.1576 7.73505 9.93045 7.18745 9.79535 6.86672V6.86566C9.63619 6.48787 9.42087 6.21571 9.13935 6.08441C8.85784 5.95311 8.60912 5.99044 8.59906 5.98994H8.598C8.3971 5.98067 8.17665 5.97826 7.95792 5.97826ZM7.95792 7.06522C8.16746 7.06522 8.37403 7.06777 8.54704 7.07583C8.72503 7.0847 8.71396 7.08543 8.67973 7.06946C8.64495 7.05325 8.69214 7.04798 8.79331 7.28813C8.9256 7.60218 9.1539 8.15177 9.35802 8.64152C9.46008 8.88639 9.55559 9.1162 9.63188 9.29645C9.70816 9.4767 9.7495 9.57733 9.79747 9.67328V9.67434L9.79853 9.6754C9.84556 9.7682 9.8414 9.70879 9.82507 9.74121C9.71038 9.96883 9.69482 10.0247 9.5788 10.1584C9.40216 10.3619 9.22198 10.5888 9.12661 10.6827C9.04317 10.7647 8.89262 10.8924 8.79862 11.1424C8.70447 11.3927 8.74841 11.7362 8.89946 11.9926C9.10056 12.334 9.76326 13.4127 10.7931 14.3194C11.4417 14.8911 12.046 15.2695 12.5287 15.5242C13.0114 15.7788 13.4045 15.9275 13.4925 15.971C13.7014 16.0744 13.9297 16.1547 14.1952 16.1228C14.4607 16.091 14.6896 15.9299 14.8353 15.7651L14.8363 15.7641C15.0302 15.5442 15.6064 14.8863 15.8829 14.4807C15.8947 14.4849 15.8908 14.4816 15.9827 14.5147V14.5158H15.9838C16.0257 14.5307 16.5512 14.7659 17.0198 14.9892C17.4883 15.2124 17.9639 15.4445 18.1184 15.521C18.3414 15.6313 18.4468 15.7032 18.474 15.7035C18.4759 15.7514 18.4777 15.8032 18.4708 15.8819C18.4518 16.1002 18.3934 16.4023 18.2766 16.7258C18.2193 16.8841 17.9212 17.2107 17.5452 17.4486C17.1692 17.6866 16.7116 17.8546 16.5421 17.8796C16.0326 17.9547 15.4275 17.9821 14.7631 17.7734C14.3024 17.6288 13.7279 17.4416 12.984 17.1249C11.4754 16.4815 10.1933 15.3867 9.27734 14.4223C8.81939 13.9402 8.45248 13.4913 8.19145 13.1517C7.9309 12.8128 7.81713 12.6364 7.72227 12.5117L7.72121 12.5106C7.55283 12.2879 6.52174 10.8537 6.52174 9.56182C6.52174 8.19456 7.15679 7.65839 7.50042 7.28813C7.68083 7.09375 7.87805 7.06522 7.95792 7.06522Z" fill="#ADA08C"/>
</g>
<defs>
<clipPath id="clip0_0_147">
<rect width="25" height="25" fill="white"/>
</clipPath>
</defs>
</svg>
